HIERARCHY
ROOT Hips
{
	OFFSET -3.958830 18.904000 13.208200
	CHANNELS 6 Xposition Yposition Zposition Zrotation Yrotation Xrotation 
	JOINT LHipJoint
	{
		OFFSET 0.000000 0.000000 0.000000
		CHANNELS 3 Zrotation Yrotation Xrotation
		JOINT LeftUpLeg
		{
			OFFSET 1.800000 -1.400000 0.085000
			CHANNELS 3 Zrotation Yrotation Xrotation
			JOINT LeftLeg
			{
				OFFSET 2.215000 -6.000000 0.000000
				CHANNELS 3 Zrotation Yrotation Xrotation
				JOINT LeftFoot
				{
					OFFSET 2.500000 -6.900000 0.000000
					CHANNELS 3 Zrotation Yrotation Xrotation
					JOINT LeftToeBase
					{
						OFFSET 0.200000 -0.500000 1.950000
						CHANNELS 3 Zrotation Yrotation Xrotation
						End Site
						{
							OFFSET 0.000000 0.000000 0.000000
						}
					}
				}
			}
		}
	}
	JOINT RHipJoint
	{
		OFFSET 0.000000 0.000000 0.000000
		CHANNELS 3 Zrotation Yrotation Xrotation
		JOINT RightUpLeg
		{
			OFFSET -1.800000 -1.400000 0.085000
			CHANNELS 3 Zrotation Yrotation Xrotation
			JOINT RightLeg
			{
				OFFSET -2.215000 -6.000000 0.000000
				CHANNELS 3 Zrotation Yrotation Xrotation
				JOINT RightFoot
				{
					OFFSET -2.500000 -6.900000 0.000000
					CHANNELS 3 Zrotation Yrotation Xrotation
					JOINT RightToeBase
					{
						OFFSET -0.200000 -0.500000 1.950000
						CHANNELS 3 Zrotation Yrotation Xrotation
						End Site
						{
							OFFSET 0.000000 0.000000 0.000000
						}
					}
				}
			}
		}
	}
	JOINT LowerBack
	{
		OFFSET 0.000000 0.000000 0.000000
		CHANNELS 3 Zrotation Yrotation Xrotation
		JOINT Spine
		{
			OFFSET -0.087000 1.940000 -0.288900
			CHANNELS 3 Zrotation Yrotation Xrotation
			JOINT Spine1
			{
				OFFSET 0.000000 1.950000 0.060000
				CHANNELS 3 Zrotation Yrotation Xrotation
				JOINT Neck
				{
					OFFSET 0.000000 0.000000 0.000000
					CHANNELS 3 Zrotation Yrotation Xrotation
					JOINT Neck1
					{
						OFFSET 0.000000 1.600000 0.340000
						CHANNELS 3 Zrotation Yrotation Xrotation
						JOINT Head
						{
							OFFSET 0.000000 1.667000 -0.240000
							CHANNELS 3 Zrotation Yrotation Xrotation
							End Site
							{
								OFFSET 0.000000 0.000000 0.000000
							}
						}
					}
				}
				JOINT LeftShoulder
				{
					OFFSET 0.000000 0.000000 0.000000
					CHANNELS 3 Zrotation Yrotation Xrotation
					JOINT LeftArm
					{
						OFFSET 2.700000 1.550000 -0.730000
						CHANNELS 3 Zrotation Yrotation Xrotation
						JOINT LeftForeArm
						{
							OFFSET 5.450000 0.000000 0.000000
							CHANNELS 3 Zrotation Yrotation Xrotation
							JOINT LeftHand
							{
								OFFSET 3.450000 0.000000 0.000000
								CHANNELS 3 Zrotation Yrotation Xrotation
								JOINT LeftHandIndex1
								{
									OFFSET 0.750000 0.000000 0.000000
									CHANNELS 3 Zrotation Yrotation Xrotation
									End Site
									{
										OFFSET 0.000000 0.000000 0.000000
									}
								}
							}
						}
					}
				}
				JOINT RightShoulder
				{
					OFFSET 0.000000 0.000000 0.000000
					CHANNELS 3 Zrotation Yrotation Xrotation
					JOINT RightArm
					{
						OFFSET -2.700000 1.550000 -0.730000
						CHANNELS 3 Zrotation Yrotation Xrotation
						JOINT RightForeArm
						{
							OFFSET -5.450000 0.000000 0.000000
							CHANNELS 3 Zrotation Yrotation Xrotation
							JOINT RightHand
							{
								OFFSET -3.450000 0.000000 0.000000
								CHANNELS 3 Zrotation Yrotation Xrotation
								JOINT RightHandIndex1
								{
									OFFSET -0.750000 0.000000 0.000000
									CHANNELS 3 Zrotation Yrotation Xrotation
									End Site
									{
										OFFSET 0.000000 0.000000 0.000000
									}
								}
							}
						}
					}
				}
			}
		}
	}
}
MOTION
Frames: 13
Frame Time: 0.016667
-1.084760 16.830150 -0.258360 -10.493583 52.221141 -7.447137 -15.695961 11.144342 5.347725 24.197864 -4.189451 -32.826351 -30.031679 15.296348 22.507581 0.543163 8.634281 1.300038 0.161820 0.094180 0.233210 18.114264 -9.104987 2.816045 -12.011992 5.869072 -31.765422 8.405097 -14.594952 53.081364 -1.000253 -8.628544 1.200801 0.141160 0.034800 0.050460 -3.000703 -2.024360 -9.119795 2.017633 -1.393331 32.283529 -0.506595 -0.700654 14.189366 3.992985 6.389610 -8.616507 11.640537 -7.071500 58.530467 -2.125870 -0.710930 1.834170 -10.092859 -2.681043 0.112885 -18.182758 -6.777621 -5.576946 10.068481 -72.722084 -6.751611 -3.584762 3.226729 0.131680 0.080610 0.018820 -0.021030 4.267836 -0.161890 4.424104 35.003562 14.190025 0.622504 -100.359791 77.542533 -85.789176 1.979034 4.786293 -0.099960 0.111540 -0.002980 -0.106190 
-1.110000 16.765000 -0.225710 -9.785999 52.210221 -6.763427 -15.728425 10.966178 5.614268 25.746952 -4.115574 -33.881579 -31.926704 16.559426 23.641686 0.661804 9.152150 1.130780 0.163300 0.094510 0.242640 18.121670 -9.124357 2.615208 -12.590214 5.344454 -30.999954 7.910064 -13.888590 51.376612 -0.903007 -8.271048 1.303489 0.139990 0.022270 0.057050 -2.890873 -1.880936 -9.136441 1.133222 -0.855478 31.861284 -0.476672 -0.279928 13.152360 4.209890 6.633095 -8.174404 12.647666 -7.910494 58.627908 -2.820780 -0.618640 2.181680 -10.142533 -3.471506 0.775809 -16.870139 -6.355367 -5.115541 8.874107 -72.482925 -5.844285 -3.618440 3.253272 0.122460 0.085260 0.019520 -0.026950 4.061699 1.049772 2.548433 35.419727 11.651409 -10.823932 108.396285 89.060439 114.355315 1.290145 3.010699 -0.091890 0.094270 -0.007060 -0.111040 
-1.169830 16.630780 -0.164080 -8.124803 51.341773 -5.436153 -15.812614 10.648352 6.283149 29.870029 -3.425290 -35.728230 -37.338058 19.394239 24.749647 0.948744 10.250408 0.801938 0.149660 0.080630 0.227440 18.132635 -9.095191 2.112433 -14.244290 4.226638 -28.512129 6.823211 -12.504016 47.860234 -0.709145 -7.555678 1.528499 0.134610 0.035730 0.054010 -2.597862 -1.858816 -9.197995 -1.139803 0.476283 31.129552 0.351233 0.760986 13.114445 3.681404 6.991764 -8.456855 13.376896 -8.033206 57.516021 -2.096120 -0.406130 2.435520 -11.519213 -5.229975 0.959875 -14.739337 -5.905603 -5.369025 11.974338 -72.851210 -7.820574 -3.612701 3.208919 0.118180 0.091530 0.008210 -0.027410 6.232632 3.112476 3.418940 32.755280 11.377374 -9.842550 -38.316253 86.751011 -35.212916 1.764819 -0.791805 -0.099290 0.092500 0.000160 -0.109850 
-1.228290 16.494110 -0.113900 -6.538058 49.850566 -4.707823 -15.932324 10.314224 7.009316 35.307253 -1.873097 -37.215775 -44.124202 22.994142 25.442338 1.291254 11.314742 0.510235 0.178910 0.126460 0.229690 18.147755 -8.990788 1.572746 -16.345094 3.176228 -25.978061 5.130036 -11.384173 45.836627 -0.606115 -7.085801 1.681077 0.151500 0.025600 0.046820 -2.223893 -1.950558 -9.282050 -3.546702 2.005513 30.715570 1.476255 2.016986 12.863245 3.198591 7.162649 -8.509635 13.395687 -8.079095 57.620177 -0.672940 -0.640090 1.798870 -12.779047 -6.569293 1.054978 -14.708021 -6.803428 -5.701454 17.467242 -71.631634 -11.022507 -3.563414 3.118462 0.127620 0.069290 0.029140 -0.009680 8.203799 4.938685 3.707170 30.669481 11.454800 -9.266970 -22.454387 81.368627 -19.780434 1.931353 -1.305256 -0.085750 0.099990 -0.020290 -0.098370 
-1.273720 16.383370 -0.034960 -4.726006 47.661015 -4.882019 -16.061284 10.255007 7.485490 40.465183 0.309023 -35.996969 -50.641651 26.663968 25.516415 1.593420 12.009618 0.338168 0.224920 0.198840 0.241060 18.115382 -8.964598 1.058814 -18.147865 2.323564 -22.887080 2.999020 -9.983137 43.862272 -0.527549 -6.584135 1.849244 0.174840 -0.007750 0.032730 -1.775024 -2.202513 -9.222659 -6.617637 4.118394 30.383992 3.440685 3.795140 12.775841 2.623088 7.158193 -8.672935 13.092296 -8.654243 58.980579 0.910470 -1.547840 0.872600 -14.567043 -8.146479 1.316364 -15.721967 -7.746413 -6.256154 23.005400 -70.650998 -14.334456 -3.480180 3.007485 0.146360 0.023410 0.071730 0.010250 10.899800 7.593113 4.130755 27.955303 11.124743 -9.440584 -12.100675 75.269497 -10.259110 2.049210 -1.447676 -0.058870 0.109970 -0.053000 -0.081200 
-1.321160 16.294660 0.015410 -3.083754 46.959649 -4.599746 -16.142728 10.174580 7.706800 44.006549 1.667088 -35.614896 -54.492953 30.201438 26.981797 1.798689 12.471613 0.252995 0.223120 0.194540 0.228750 18.101995 -8.876547 0.843440 -20.515581 1.673182 -21.528047 3.307025 -10.102063 42.455195 -0.480562 -6.483877 1.881323 0.172020 0.000180 0.016530 -1.528794 -2.323508 -9.221547 -8.565648 5.451075 29.988005 4.440025 5.046512 12.052989 2.334004 7.395027 -8.564466 13.337466 -9.753112 59.947222 1.870750 -2.584750 1.942250 -17.741302 -9.954547 1.226054 -15.773426 -9.871717 -6.465911 28.888143 -69.952515 -17.691135 -3.453269 2.888198 0.137980 0.017230 0.060370 0.022100 14.594267 9.833552 4.556381 25.778449 10.614634 -9.625520 -9.122745 68.706696 -6.802549 2.115633 -1.460429 -0.061320 0.111130 -0.062440 -0.071020 
-1.348500 16.220630 0.059360 -2.260441 46.559064 -4.991324 -16.175648 10.171110 7.737109 46.223469 2.488924 -35.292130 -54.579991 34.689396 31.545484 1.979661 12.956755 0.145685 0.206250 0.181590 0.191310 18.095708 -8.812128 0.815321 -21.938796 1.476889 -20.898090 4.053033 -10.839021 43.081536 -0.522170 -6.725587 1.803233 0.152530 0.015540 0.006630 -1.405348 -2.372648 -9.251666 -9.118333 6.296666 29.600054 5.332704 6.143546 11.181158 2.024557 7.500116 -8.968205 13.431841 -10.485428 61.535196 3.785170 -3.605560 2.960300 -20.813056 -12.182900 1.732463 -17.657327 -11.308493 -6.888088 31.161260 -70.332491 -19.625742 -3.425773 2.816664 0.139960 0.005370 0.058190 0.031370 18.201692 12.329646 5.330235 23.921755 9.479962 -9.933769 -7.664696 61.050346 -4.714304 2.173053 -1.440830 -0.056100 0.114020 -0.054210 -0.051960 
-1.362410 16.194510 0.105600 -1.730165 45.811856 -5.573108 -16.178596 10.275743 7.669738 46.686843 2.300332 -34.668535 -51.100382 38.796161 38.210472 2.113188 13.484242 -0.006062 0.217480 0.198820 0.183320 18.076492 -8.843303 0.833830 -21.835841 1.538114 -21.065531 3.279759 -10.931057 44.949336 -0.593894 -6.927906 1.735545 0.150790 0.000860 -0.008000 -1.365834 -2.397649 -9.255536 -9.330674 6.612057 29.342197 5.879021 6.768350 10.493522 1.669745 7.050134 -9.554072 12.476372 -10.330952 63.973430 6.084250 -4.122040 2.723140 -23.142369 -13.689294 2.340115 -22.119868 -12.033989 -7.908470 38.955300 -71.564133 -25.878775 -3.322703 2.593999 0.178070 -0.033920 0.083370 0.032290 21.182289 14.295300 6.185569 24.021314 8.328170 -10.229886 -6.504740 54.254779 -3.471387 2.212876 -1.412826 -0.052420 0.124120 -0.052350 -0.048230 
-1.335350 16.177230 0.147030 -1.393972 45.095197 -5.814256 -16.167069 10.397958 7.561564 45.597041 1.375521 -33.778909 -47.143958 41.417502 44.179481 2.237566 13.987283 -0.160203 0.258590 0.251890 0.199210 18.047806 -8.990478 0.801185 -21.064846 1.440482 -21.211854 1.380108 -10.251656 46.213849 -0.638014 -6.930780 1.726006 0.169380 -0.030390 0.000360 -1.374883 -2.298497 -9.174755 -8.976909 6.511913 27.913105 6.182359 6.993002 9.934940 1.707180 6.808885 -9.756752 12.228068 -10.652364 66.242040 7.398830 -4.364280 2.208980 -25.143836 -13.666884 2.547431 -27.699065 -13.612453 -7.959328 39.554377 -72.449921 -27.458481 -3.269413 2.549763 0.203200 -0.065890 0.121270 0.037790 23.243937 14.460679 6.344812 25.803074 8.120012 -9.791832 -6.415096 47.619904 -2.931180 2.251850 -1.385488 -0.027700 0.114490 -0.066700 -0.044620 
-1.279860 16.188420 0.181520 -1.560605 44.288719 -6.317511 -16.144821 10.555973 7.393438 44.058315 0.313551 -31.972424 -43.652394 42.952646 48.830122 2.338816 14.462122 -0.290415 0.244390 0.227040 0.193370 18.014576 -9.208018 0.747055 -19.678006 1.253791 -21.118282 -0.987651 -9.118088 46.799530 -0.624030 -6.812655 1.769519 0.162110 -0.020170 -0.001080 -1.400033 -2.140955 -9.009643 -8.434141 6.271625 25.879320 6.525025 7.098212 9.422886 1.856530 6.922737 -9.669173 13.244167 -11.558497 68.524949 8.239690 -4.103070 3.571810 -27.174909 -12.584103 2.601539 -32.830699 -14.741493 -7.250668 39.201361 -77.088025 -30.456861 -3.269304 2.517094 0.213970 -0.060320 0.113610 0.029370 25.217471 13.264503 5.936668 28.508568 8.098272 -9.089779 -6.190800 42.052929 -2.541805 2.295585 -1.352498 -0.042870 0.112040 -0.051150 -0.054290 
-1.186700 16.200240 0.207290 -1.767758 42.767040 -6.354384 -16.091586 10.861037 7.025433 41.043670 -0.877826 -28.420416 -40.403809 42.735801 51.553726 2.424898 14.711004 -0.363041 0.257260 0.244400 0.188390 17.949676 -9.563748 0.756600 -18.283628 1.024829 -20.745694 -3.197465 -7.622792 45.645448 -0.576806 -6.425210 1.908825 0.161320 -0.035810 -0.007630 -1.559479 -1.892734 -8.816499 -6.726795 5.580299 23.157092 6.673363 6.739129 8.845242 1.786601 6.035704 -9.513265 11.190602 -10.963116 71.013798 8.708180 -4.697470 4.199710 -28.254879 -10.495538 2.842494 -39.291150 -14.379167 -6.876010 38.271049 -79.632124 -32.049176 -3.226828 2.526313 0.221530 -0.082600 0.128060 0.039670 26.636632 11.638596 5.262097 31.717894 7.504420 -8.908297 -5.840864 38.560084 -2.351976 2.342155 -1.332341 -0.029110 0.105680 -0.062310 -0.044770 
-1.074060 16.217780 0.216470 -1.947465 41.256426 -6.054570 -15.982831 11.227340 6.462535 36.823147 -2.128691 -23.713271 -39.168205 40.735023 50.606714 2.419827 14.580451 -0.324368 0.242650 0.214120 0.175450 17.902856 -10.010901 0.815670 -17.483446 0.435429 -20.362760 -4.560342 -6.471048 42.751525 -0.472772 -5.891344 2.093641 0.142540 -0.028880 -0.005580 -1.898216 -1.545064 -8.552648 -4.187565 4.326075 19.996808 5.872052 5.745050 8.577011 1.947293 5.189096 -8.833585 8.838140 -10.195667 71.881653 8.076920 -5.547100 5.140670 -28.277837 -6.999454 2.654998 -45.897333 -14.500846 -5.256240 31.856777 -82.294660 -29.107664 -3.247859 2.701521 0.213440 -0.081670 0.114600 0.042030 26.523495 8.148220 3.924912 36.088537 6.286885 -9.690359 -4.213970 41.201079 -2.155292 2.341578 -1.337831 -0.028020 0.096840 -0.056310 -0.038610 
-0.974120 16.240160 0.205790 -2.364962 40.031854 -5.285338 -15.821755 11.503802 5.821285 31.879455 -3.135715 -19.383939 -38.765153 37.202591 47.030437 2.340007 14.093684 -0.150287 0.156850 0.115530 0.089820 17.931994 -10.393201 0.964559 -17.084439 -0.086235 -21.160257 -4.975481 -6.062064 40.632335 -0.355920 -5.585596 2.221496 0.095900 0.055120 -0.017690 -2.430874 -1.142594 -8.300789 -1.232347 2.610248 16.532372 4.198286 3.945559 8.779518 1.964382 4.595078 -8.034831 6.912864 -8.775988 69.681831 7.757450 -6.053300 7.159360 -26.276657 -3.478989 2.538599 -51.994484 -15.190386 -3.092855 30.747436 -84.750147 -29.641811 -3.280870 2.742390 0.157680 -0.029670 0.037130 0.050020 24.536763 3.874339 2.318941 41.201699 6.335852 -9.357762 1.414992 44.218271 -0.446670 2.357827 -1.354523 -0.057410 0.105770 -0.016500 -0.013170 
